<?xml version="1.0" encoding="UTF-8" standalone="no"?>
<svg
   xmlns:dc="http://purl.org/dc/elements/1.1/"
   xmlns:cc="http://creativecommons.org/ns#"
   xmlns:rdf="http://www.w3.org/1999/02/22-rdf-syntax-ns#"
   xmlns:svg="http://www.w3.org/2000/svg"
   xmlns="http://www.w3.org/2000/svg"
   xmlns:sodipodi="http://sodipodi.sourceforge.net/DTD/sodipodi-0.dtd"
   xmlns:inkscape="http://www.inkscape.org/namespaces/inkscape"
   inkscape:version="1.0 (4035a4fb49, 2020-05-01)"
   sodipodi:docname="redArrow.svg"
   id="svg40"
   xml:space="preserve"
   enable-background="new 0 0 1000 1000"
   viewBox="0 0 32 32"
   y="0px"
   x="0px"
   version="1.1"
   width="32"
   height="32"><defs
   id="defs44" /><sodipodi:namedview
   inkscape:current-layer="svg40"
   inkscape:window-maximized="1"
   inkscape:window-y="-9"
   inkscape:window-x="2541"
   inkscape:cy="16.04375"
   inkscape:cx="18.120168"
   inkscape:zoom="28.256"
   showgrid="false"
   id="namedview42"
   inkscape:window-height="1321"
   inkscape:window-width="2400"
   inkscape:pageshadow="2"
   inkscape:pageopacity="0"
   guidetolerance="10"
   gridtolerance="10"
   objecttolerance="10"
   borderopacity="1"
   bordercolor="#666666"
   pagecolor="#ffffff"
   inkscape:document-rotation="0"
   inkscape:pagecheckerboard="true" />
<metadata
   id="metadata2"> Svg Vector Icons : http://www.onlinewebfonts.com/icon <rdf:RDF><cc:Work
     rdf:about=""><dc:format>image/svg+xml</dc:format><dc:type
       rdf:resource="http://purl.org/dc/dcmitype/StillImage" /><dc:title /></cc:Work></rdf:RDF></metadata>
<circle
   style="fill:#0099ff;stroke-width:2.25337;stroke-linecap:round;paint-order:fill markers stroke;stop-color:#000000;opacity:1;fill-opacity:1"
   id="path863"
   cx="16"
   cy="15.999715"
   r="13.646483" /><path
   id="path4"
   d="m 15.999754,7.912065 -6.3610502,6.361049 c -0.5850442,0.585045 -0.5867752,1.535316 0,2.122092 0.5867752,0.586775 1.5353152,0.586775 2.1220902,0 l 2.741751,-2.741752 -0.0033,9.101077 c 0,0.827371 0.671615,1.498985 1.498986,1.498985 0.415416,0 0.787572,-0.167907 1.059322,-0.439662 0.271749,-0.27175 0.439613,-0.647369 0.439613,-1.059323 v -9.101077 l 2.741745,2.741752 c 0.585049,0.585044 1.535315,0.586775 2.12209,0 0.586775,-0.586776 0.586775,-1.535316 0,-2.122092 z"
   style="fill:#ffffff;stroke:#ffffff;stroke-width:0.799518;stroke-miterlimit:4;stroke-dasharray:none;stroke-opacity:1" /><path
   id="path868"
   style="fill:#ffffff;stroke-width:0.0326526"
   d="M 16,0 C 11.905188,0 7.8098074,1.5613896 4.6858844,4.6853179 c -6.2478459,6.2478421 -6.2478459,16.3803811 0,22.6282311 6.2478536,6.247841 16.3803836,6.247842 22.6282316,0 6.247846,-6.24785 6.247846,-16.380389 0,-22.6282311 C 24.190192,1.5613896 20.094813,0 16,0 Z m 0,3.8909912 c 3.098672,0 6.197464,1.1815208 8.562197,3.5462453 4.729458,4.7294635 4.729458,12.3949395 0,17.1243935 -4.729466,4.729457 -12.394936,4.729457 -17.124394,0 -4.7294592,-4.729454 -4.7294592,-12.39493 0,-17.1243935 C 9.8025298,5.072512 12.901337,3.8909912 16,3.8909912 Z m -0.278216,0.4415166 a 10.613017,11.500508 0 0 1 0.04839,0 10.613017,11.500508 0 0 0 -0.04839,0 z m 0.02016,0.7983588 a 9.8860446,10.712745 0 0 1 0.04435,0 9.8860446,10.712745 0 0 0 -0.04435,0 z" /><g
   id="g8"
   transform="rotate(-45,500,500)" /><g
   id="g10"
   transform="rotate(-45,500,500)" /><g
   id="g12"
   transform="rotate(-45,500,500)" /><g
   id="g14"
   transform="rotate(-45,500,500)" /><g
   id="g16"
   transform="rotate(-45,500,500)" /><g
   id="g18"
   transform="rotate(-45,500,500)" /><g
   id="g20"
   transform="rotate(-45,500,500)" /><g
   id="g22"
   transform="rotate(-45,500,500)" /><g
   id="g24"
   transform="rotate(-45,500,500)" /><g
   id="g26"
   transform="rotate(-45,500,500)" /><g
   id="g28"
   transform="rotate(-45,500,500)" /><g
   id="g30"
   transform="rotate(-45,500,500)" /><g
   id="g32"
   transform="rotate(-45,500,500)" /><g
   id="g34"
   transform="rotate(-45,500,500)" /><g
   id="g36"
   transform="rotate(-45,500,500)" />
</svg>
